<svg data-v-423bf9ae="" xmlns="http://www.w3.org/2000/svg" viewBox="0 0 354.820486293755 60" class="font"><!----><!----><!----><g data-v-423bf9ae="" id="5bca9157-bd79-4413-96ab-f5ee94785193" fill="white" transform="matrix(4.5836515890443295,0,0,4.5836515890443295,-4.675324169076561,-0.9625659480762856)"><path d="M2.98 10.50L2.98 6.24L7.11 6.24L7.11 4.47L2.98 4.47L2.98 2.20L8.11 2.20L8.11 0.42L1.02 0.42L1.02 10.50ZM10.77 10.50L10.77 7.06C10.77 5.64 11.37 4.75 12.57 4.75C13.01 4.75 13.30 4.87 13.58 5.03L13.92 3.39C13.58 3.12 13.19 3.01 12.63 3.01C11.62 3.01 11.10 3.50 10.64 4.48L10.64 3.22L8.92 3.22L8.92 10.50ZM14.28 6.86C14.28 9.46 15.86 10.71 17.82 10.71C19.80 10.71 21.38 9.46 21.38 6.86C21.38 4.26 19.80 3.01 17.82 3.01C15.86 3.01 14.28 4.26 14.28 6.86ZM16.13 6.86C16.13 5.32 16.81 4.55 17.82 4.55C18.83 4.55 19.53 5.32 19.53 6.86C19.53 8.41 18.83 9.17 17.82 9.17C16.81 9.17 16.13 8.41 16.13 6.86ZM24.43 10.50L24.43 6.54C24.43 5.24 25.09 4.56 25.94 4.56C26.84 4.56 27.17 5.12 27.17 6.09L27.17 10.50L29.02 10.50L29.02 6.03C29.02 4.30 28.43 3.01 26.42 3.01C25.51 3.01 24.84 3.37 24.30 4.27L24.30 3.22L22.58 3.22L22.58 10.50ZM34.23 8.95C34.01 9.02 33.80 9.03 33.66 9.03C33.00 9.03 33.00 8.58 33.00 7.95L33.00 4.68L34.34 4.68L34.34 3.22L33.00 3.22L33.00 0.99L31.15 1.60L31.15 3.22L30.11 3.22L30.11 4.68L31.15 4.68L31.15 8.37C31.15 9.80 31.63 10.64 33.15 10.64C33.42 10.64 34.08 10.57 34.36 10.43ZM39.38 7.28C39.54 9.46 40.91 10.71 43.54 10.71C45.42 10.71 47.36 9.73 47.36 7.62C47.36 5.98 46.34 5.14 44.87 4.72C43.90 4.45 42.76 4.13 42.29 3.95C41.79 3.75 41.59 3.47 41.59 3.05C41.59 2.32 42.32 1.92 43.27 1.92C44.48 1.92 44.98 2.51 45.11 3.40L47.04 3.30C46.90 1.20 45.56 0.21 43.22 0.21C41.43 0.21 39.70 1.18 39.70 3.22C39.70 4.17 40.01 5.21 41.79 5.75C42.39 5.95 43.71 6.27 44.24 6.47C45.04 6.75 45.33 7.10 45.33 7.69C45.33 8.57 44.55 9.00 43.48 9.00C42.20 9.00 41.40 8.48 41.29 7.17L39.38 7.28ZM50.53 13.30L50.53 9.83C50.95 10.47 51.62 10.71 52.29 10.71C54.11 10.71 55.47 9.32 55.47 6.86C55.47 4.40 54.15 3.01 52.33 3.01C51.46 3.01 50.81 3.42 50.39 4.12L50.39 3.22L48.68 3.22L48.68 13.30ZM50.37 6.86C50.37 5.31 51.14 4.55 52.01 4.55C52.92 4.55 53.62 5.31 53.62 6.86C53.62 8.41 52.96 9.17 52.00 9.17C51.04 9.17 50.37 8.41 50.37 6.86ZM60.93 9.70C60.97 9.97 61.04 10.32 61.25 10.50L63.11 10.50C62.86 10.23 62.69 9.76 62.69 9.02L62.69 6.02C62.69 3.89 61.53 3.01 59.65 3.01C58.28 3.01 56.88 3.53 56.52 5.21L58.13 5.70C58.30 5.04 58.70 4.51 59.54 4.51C60.45 4.51 60.84 5.04 60.84 5.73L60.84 5.92C60.48 6.09 59.92 6.19 59.15 6.27C57.43 6.47 56.29 7.07 56.29 8.64C56.29 10.02 57.41 10.71 58.74 10.71C59.61 10.71 60.30 10.46 60.93 9.70ZM60.84 8.30C60.56 8.79 59.88 9.31 59.14 9.31C58.52 9.31 58.17 9.02 58.17 8.51C58.14 7.81 58.72 7.60 59.39 7.48C60.10 7.34 60.58 7.21 60.84 7.10ZM65.83 6.86C65.83 5.32 66.47 4.55 67.41 4.55C68.14 4.55 68.67 4.96 68.87 5.91L70.67 5.61C70.28 3.79 68.98 3.01 67.41 3.01C65.49 3.01 63.98 4.26 63.98 6.86C63.98 9.46 65.49 10.71 67.41 10.71C68.98 10.71 70.28 9.94 70.67 8.12L68.85 7.84C68.67 8.78 68.14 9.17 67.41 9.17C66.44 9.17 65.83 8.41 65.83 6.86ZM78.41 7.38C78.41 7.34 78.43 6.93 78.43 6.61C78.43 4.27 76.93 3.01 74.98 3.01C73.08 3.01 71.46 4.26 71.46 6.86C71.46 9.46 73.07 10.71 74.98 10.71C76.68 10.71 77.80 9.95 78.30 8.46L76.58 8.09C76.38 8.75 75.82 9.17 75.10 9.17C74.13 9.17 73.37 8.61 73.30 7.38ZM74.94 4.55C75.87 4.55 76.48 5.17 76.54 6.08L73.33 6.08C73.46 5.07 74.20 4.55 74.94 4.55Z"></path></g><!----><!----></svg>